Coordinates
version=1
nRows=13
nColumns=40
inDegrees=yes

Units are S.I. units (second, meters, Newtons, ...)
If the header above contains a line with 'inDegrees', this indicates whether rotational values are in degrees (yes) or radians (no).

endheader
time	pelvis_tilt	pelvis_list	pelvis_rotation	pelvis_tx	pelvis_ty	pelvis_tz	hip_flexion_r	hip_adduction_r	hip_rotation_r	knee_angle_r	knee_angle_r_beta	ankle_angle_r	subtalar_angle_r	mtp_angle_r	hip_flexion_l	hip_adduction_l	hip_rotation_l	knee_angle_l	knee_angle_l_beta	ankle_angle_l	subtalar_angle_l	mtp_angle_l	lumbar_extension	lumbar_bending	lumbar_rotation	arm_flex_r	arm_add_r	arm_rot_r	elbow_flex_r	pro_sup_r	wrist_flex_r	wrist_dev_r	arm_flex_l	arm_add_l	arm_rot_l	elbow_flex_l	pro_sup_l	wrist_flex_l	wrist_dev_l
      5.44500000	    -31.40638357	      0.27908601	     -1.57164452	     -0.28946207	      0.65626015	     -0.85989692	     89.61357154	    -31.94348461	     -2.83140265	     96.10493676	      1.67734757	     31.36995443	      0.00000000	      0.00000000	     91.45849909	    -32.44930358	      2.91747938	     93.38041378	      1.62979568	     30.46659238	      0.00000000	      0.00000000	    -20.20083835	      1.62890570	      6.56938112	    -37.27233542	    -49.86253305	     28.83316299	     97.85401877	     87.90095419	      0.00000000	      0.00000000	    -28.66834006	    -54.99590658	     32.23953977	    106.32634713	     87.82774809	      0.00000000	      0.00000000
      5.45000000	    -31.84217035	      0.24800640	     -1.48131291	     -0.29086760	      0.65127239	     -0.86032543	     90.65086690	    -32.10493011	     -2.52691168	     96.74402734	      1.68850181	     31.50634943	      0.00000000	      0.00000000	     92.59891420	    -32.47668305	      3.20509961	     94.03539183	      1.64122720	     30.51683482	      0.00000000	      0.00000000	    -20.28436594	      1.67815810	      6.65650970	    -36.95739743	    -50.00009892	     29.40673438	     97.79959845	     87.90443140	      0.00000000	      0.00000000	    -28.50246985	    -54.97864846	     32.46537457	    106.30664794	     87.83180054	      0.00000000	      0.00000000
      5.45500000	    -32.16203841	      0.19095084	     -1.37906431	     -0.29210516	      0.64671786	     -0.86062787	     91.51170082	    -32.28128162	     -2.27811902	     97.36699229	      1.69937460	     31.62011531	      0.00000000	      0.00000000	     93.59511905	    -32.51595667	      3.48747189	     94.65596797	      1.65205830	     30.53711825	      0.00000000	      0.00000000	    -20.48291286	      1.73253645	      6.74044703	    -36.52933516	    -50.12722591	     30.04380306	     97.63954087	     87.89554521	      0.00000000	      0.00000000	    -28.28408449	    -54.99078465	     32.68854817	    106.25834576	     87.83580807	      0.00000000	      0.00000000
      5.46000000	    -32.55369045	      0.17749752	     -1.33893926	     -0.29352008	      0.64211043	     -0.86098094	     92.50460432	    -32.37415756	     -1.93453431	     97.95318971	      1.70960567	     31.70301002	      0.00000000	      0.00000000	     94.62664548	    -32.58856572	      3.72121715	     95.25844278	      1.66257347	     30.59612882	      0.00000000	      0.00000000	    -20.58660510	      1.74901174	      6.85004703	    -36.25270635	    -50.30530306	     30.46690136	     97.68101837	     87.89010316	      0.00000000	      0.00000000	    -28.15895155	    -55.00519863	     32.82297104	    106.28593527	     87.83706018	      0.00000000	      0.00000000
      5.46500000	    -32.65074333	      0.12316588	     -1.23851259	     -0.29461621	      0.63824119	     -0.86128710	     93.10080539	    -32.56324267	     -1.70869345	     98.53512585	      1.71976237	     31.82492123	      0.00000000	      0.00000000	     95.30962836	    -32.66475899	      3.90308664	     95.80683161	      1.67214466	     30.71528677	      0.00000000	      0.00000000	    -21.07070662	      1.80805866	      6.97673790	    -36.09732486	    -50.35188836	     30.60984754	     97.67283051	     87.89693687	      0.00000000	      0.00000000	    -27.93661132	    -54.98289362	     32.75360235	    106.28644305	     87.83184150	      0.00000000	      0.00000000
      5.47000000	    -33.13986760	      0.04442836	     -1.15551044	     -0.29610437	      0.63388241	     -0.86162457	     94.12186080	    -32.64884176	     -1.42351348	     99.04584571	      1.72867612	     31.75686874	      0.00000000	      0.00000000	     96.48879388	    -32.64502945	      4.25654083	     96.33308175	      1.68132946	     30.57972268	      0.00000000	      0.00000000	    -21.00912241	      1.91123325	      7.06236255	    -35.78649270	    -50.64340130	     31.24419814	     97.63240456	     87.89703430	      0.00000000	      0.00000000	    -27.81388825	    -55.10088910	     32.98686360	    106.29820233	     87.84319823	      0.00000000	      0.00000000
      5.47500000	    -33.17422895	     -0.02635127	     -1.05927147	     -0.29720023	      0.63063555	     -0.86189714	     94.58723651	    -32.82814601	     -1.27507359	     99.52832738	      1.73709701	     31.85844701	      0.00000000	      0.00000000	     97.03860006	    -32.70618064	      4.40498157	     96.75857296	      1.68875568	     30.67956192	      0.00000000	      0.00000000	    -21.54966832	      1.98321883	      7.17682013	    -35.63341692	    -50.73428516	     31.31296652	     97.63647724	     87.89726097	      0.00000000	      0.00000000	    -27.59553259	    -55.06126871	     32.90807900	    106.33183274	     87.83587049	      0.00000000	      0.00000000
      5.48000000	    -33.49068507	     -0.17493387	     -1.03308362	     -0.29817195	      0.62661955	     -0.86222632	     95.33242079	    -32.94106336	     -1.16274941	    100.07255020	      1.74659549	     31.83908862	      0.00000000	      0.00000000	     98.05727540	    -32.76223708	      4.85712486	     97.34562451	      1.69900166	     30.65986525	      0.00000000	      0.00000000	    -21.62940937	      2.15973482	      7.35704936	    -35.54520767	    -51.02724156	     31.86972737	     97.75048717	     87.90462766	      0.00000000	      0.00000000	    -27.50126320	    -55.14829502	     33.11569936	    106.40096438	     87.84808555	      0.00000000	      0.00000000
      5.48500000	    -33.54684053	     -0.17904842	     -0.98015172	     -0.29901060	      0.62349921	     -0.86267007	     95.84369714	    -33.14080416	     -0.96606878	    100.50925374	      1.75421741	     31.92958595	      0.00000000	      0.00000000	     98.57638465	    -32.83949107	      4.95323436	     97.81685891	      1.70722625	     30.72759530	      0.00000000	      0.00000000	    -22.06740968	      2.18492040	      7.48035172	    -35.46174006	    -51.19734444	     31.99871325	     97.72891841	     87.90729425	      0.00000000	      0.00000000	    -27.28232888	    -55.12580376	     33.04383338	    106.39276360	     87.84125886	      0.00000000	      0.00000000
      5.49000000	    -33.64765550	     -0.24792136	     -0.93767474	     -0.29991365	      0.62019441	     -0.86312674	     96.37194179	    -33.30238958	     -0.80582992	    100.97732773	      1.76238684	     31.99114595	      0.00000000	      0.00000000	     99.23600543	    -32.91698848	      5.14924943	     98.32316599	      1.71606298	     30.78790217	      0.00000000	      0.00000000	    -22.40807294	      2.27971464	      7.60597023	    -35.44170484	    -51.43408672	     32.17604086	     97.80279219	     87.91370385	      0.00000000	      0.00000000	    -27.17723259	    -55.17414808	     33.07341615	    106.44934357	     87.84532935	      0.00000000	      0.00000000
      5.49500000	    -33.77160875	     -0.30512797	     -0.88832129	     -0.30090886	      0.61708936	     -0.86350623	     96.90498594	    -33.45052814	     -0.65701429	    101.38037610	      1.76942136	     32.00239624	      0.00000000	      0.00000000	     99.87645540	    -32.97338862	      5.35777718	     98.77617009	      1.72396939	     30.78293371	      0.00000000	      0.00000000	    -22.71756249	      2.33569921	      7.72337362	    -35.43031192	    -51.66330349	     32.39787842	     97.96163105	     87.91825413	      0.00000000	      0.00000000	    -27.08834944	    -55.30599786	     33.13852589	    106.58639380	     87.85294105	      0.00000000	      0.00000000
      5.50000000	    -33.98168973	     -0.26751134	     -0.82801947	     -0.30201338	      0.61362225	     -0.86418922	     97.64659731	    -33.64750447	     -0.35189366	    101.80560661	      1.77684303	     31.99234771	      0.00000000	      0.00000000	    100.57719041	    -32.96595151	      5.48145060	     99.27353671	      1.73265008	     30.74597552	      0.00000000	      0.00000000	    -22.87828767	      2.35693044	      7.77433505	    -35.50850544	    -51.98265906	     32.67110682	     98.18330784	     87.91846346	      0.00000000	      0.00000000	    -27.06361581	    -55.47778775	     33.28662547	    106.78088336	     87.85952704	      0.00000000	      0.00000000
      5.50500000	    -34.03282098	     -0.33165986	     -0.72664830	     -0.30315077	      0.61104355	     -0.86461493	     98.06780683	    -33.83055536	     -0.21326853	    102.13244367	      1.78254742	     31.97104013	      0.00000000	      0.00000000	    101.07400313	    -32.97956125	      5.59029474	     99.58177265	      1.73802981	     30.71136850	      0.00000000	      0.00000000	    -23.26433911	      2.44256326	      7.82717378	    -35.47641192	    -52.29237001	     32.80159906	     98.35742588	     87.91434839	      0.00000000	      0.00000000	    -26.90253845	    -55.60498477	     33.29454977	    106.93165286	     87.85669682	      0.00000000	      0.00000000
